HIERARCHY
ROOT hip
{
  OFFSET 0 0 0
  CHANNELS 6 Xposition Yposition Zposition Zrotation Yrotation Xrotation
  JOINT abdomen
  {
    OFFSET 0 20.6881 -0.73152
    CHANNELS 3 Zrotation Xrotation Yrotation
    JOINT chest
    {
      OFFSET 0 11.7043 -0.48768
      CHANNELS 3 Zrotation Xrotation Yrotation
      JOINT neck
      {
        OFFSET 0 22.1894 -2.19456
        CHANNELS 3 Zrotation Xrotation Yrotation
        JOINT head
        {
          OFFSET -0.24384 7.07133 1.2192
          CHANNELS 3 Zrotation Xrotation Yrotation
          JOINT leftEye
          {
            OFFSET 4.14528 8.04674 8.04672
            CHANNELS 3 Zrotation Xrotation Yrotation
            End Site
            {
              OFFSET 1 0 0
            }
          }
          JOINT rightEye
          {
            OFFSET -3.6576 8.04674 8.04672
            CHANNELS 3 Zrotation Xrotation Yrotation
            End Site
            {
              OFFSET 1 0 0
            }
          }
        }
      }
      JOINT rCollar
      {
        OFFSET -2.68224 19.2634 -4.8768
        CHANNELS 3 Zrotation Xrotation Yrotation
        JOINT rShldr
        {
          OFFSET -8.77824 -1.95073 1.46304
          CHANNELS 3 Zrotation Xrotation Yrotation
          JOINT rForeArm
          {
            OFFSET -28.1742 -1.7115 0.48768
            CHANNELS 3 Zrotation Xrotation Yrotation
            JOINT rHand
            {
              OFFSET -22.5879 0.773209 7.07136
              CHANNELS 3 Zrotation Xrotation Yrotation
              JOINT rThumb1
              {
                OFFSET -1.2192 -0.487915 3.41376
                CHANNELS 3 Zrotation Xrotation Yrotation
                JOINT rThumb2
                {
                  OFFSET -3.37035 -0.52449 3.41376
                  CHANNELS 3 Zrotation Xrotation Yrotation
                  End Site
                  {
                    OFFSET -1.78271 -1.18214 1.43049
                  }
                }
              }
              JOINT rIndex1
              {
                OFFSET -7.75947 0.938293 5.60832
                CHANNELS 3 Zrotation Xrotation Yrotation
                JOINT rIndex2
                {
                  OFFSET -2.54057 -0.884171 1.56538
                  CHANNELS 3 Zrotation Xrotation Yrotation
                  End Site
                  {
                    OFFSET -1.62519 -0.234802 1.16502
                  }
                }
              }
              JOINT rMid1
              {
                OFFSET -8.24714 1.18213 3.41376
                CHANNELS 3 Zrotation Xrotation Yrotation
                JOINT rMid2
                {
                  OFFSET -3.10165 -0.590103 1.0647
                  CHANNELS 3 Zrotation Xrotation Yrotation
                  End Site
                  {
                    OFFSET -2.48547 -0.328903 0.83742
                  }
                }
              }
              JOINT rRing1
              {
                OFFSET -8.82822 0.546677 1.51678
                CHANNELS 3 Zrotation Xrotation Yrotation
                JOINT rRing2
                {
                  OFFSET -2.60934 -0.819778 -0.0198488
                  CHANNELS 3 Zrotation Xrotation Yrotation
                  End Site
                  {
                    OFFSET -2.33842 -0.294052 0.168128
                  }
                }
              }
              JOINT rPinky1
              {
                OFFSET -8.27202 -0.0477905 -0.4584
                CHANNELS 3 Zrotation Xrotation Yrotation
                JOINT rPinky2
                {
                  OFFSET -1.82734 -0.647385 -0.700984
                  CHANNELS 3 Zrotation Xrotation Yrotation
                  End Site
                  {
                    OFFSET -1.69225 -0.51767 -0.607171
                  }
                }
              }
            }
          }
        }
      }
      JOINT lCollar
      {
        OFFSET 2.68224 19.2634 -4.8768
        CHANNELS 3 Zrotation Xrotation Yrotation
        JOINT lShldr
        {
          OFFSET 8.77824 -1.95073 1.46304
          CHANNELS 3 Zrotation Xrotation Yrotation
          JOINT lForeArm
          {
            OFFSET 28.1742 -1.7115 0.48768
            CHANNELS 3 Zrotation Xrotation Yrotation
            JOINT lHand
            {
              OFFSET 22.5879 0.773209 7.07136
              CHANNELS 3 Zrotation Xrotation Yrotation
              JOINT lThumb1
              {
                OFFSET 1.2192 -0.487915 3.41376
                CHANNELS 3 Zrotation Xrotation Yrotation
                JOINT lThumb2
                {
                  OFFSET 3.37035 -0.52449 3.41376
                  CHANNELS 3 Zrotation Xrotation Yrotation
                  End Site
                  {
                    OFFSET 1.78271 -1.18214 1.43049
                  }
                }
              }
              JOINT lIndex1
              {
                OFFSET 7.75947 0.938293 5.60832
                CHANNELS 3 Zrotation Xrotation Yrotation
                JOINT lIndex2
                {
                  OFFSET 2.54057 -0.884171 1.56538
                  CHANNELS 3 Zrotation Xrotation Yrotation
                  End Site
                  {
                    OFFSET 1.62519 -0.234802 1.16502
                  }
                }
              }
              JOINT lMid1
              {
                OFFSET 8.24714 1.18213 3.41376
                CHANNELS 3 Zrotation Xrotation Yrotation
                JOINT lMid2
                {
                  OFFSET 3.10165 -0.590103 1.0647
                  CHANNELS 3 Zrotation Xrotation Yrotation
                  End Site
                  {
                    OFFSET 2.48547 -0.328903 0.83742
                  }
                }
              }
              JOINT lRing1
              {
                OFFSET 8.82822 0.546677 1.51678
                CHANNELS 3 Zrotation Xrotation Yrotation
                JOINT lRing2
                {
                  OFFSET 2.60934 -0.819778 -0.0198488
                  CHANNELS 3 Zrotation Xrotation Yrotation
                  End Site
                  {
                    OFFSET 2.33842 -0.294052 0.168128
                  }
                }
              }
              JOINT lPinky1
              {
                OFFSET 8.27202 -0.0477905 -0.4584
                CHANNELS 3 Zrotation Xrotation Yrotation
                JOINT lPinky2
                {
                  OFFSET 1.82734 -0.647385 -0.700984
                  CHANNELS 3 Zrotation Xrotation Yrotation
                  End Site
                  {
                    OFFSET 1.69225 -0.51767 -0.607171
                  }
                }
              }
            }
          }
        }
      }
    }
  }
  JOINT rButtock
  {
    OFFSET -8.77824 4.35084 1.2192
    CHANNELS 3 Zrotation Xrotation Yrotation
    JOINT rThigh
    {
      OFFSET 0 -1.70687 -2.19456
      CHANNELS 3 Zrotation Xrotation Yrotation
      JOINT rShin
      {
        OFFSET 0 -36.8199 0.73152
        CHANNELS 3 Zrotation Xrotation Yrotation
        JOINT rFoot
        {
          OFFSET 0.73152 -45.1104 -5.12064
          CHANNELS 3 Zrotation Xrotation Yrotation
          End Site
          {
            OFFSET -1.1221 -3.69964 12.103
          }
        }
      }
    }
  }
  JOINT lButtock
  {
    OFFSET 8.77824 4.35084 1.2192
    CHANNELS 3 Zrotation Xrotation Yrotation
    JOINT lThigh
    {
      OFFSET 0 -1.70687 -2.19456
      CHANNELS 3 Zrotation Xrotation Yrotation
      JOINT lShin
      {
        OFFSET 0 -36.8199 0.73152
        CHANNELS 3 Zrotation Xrotation Yrotation
        JOINT lFoot
        {
          OFFSET -0.73152 -45.1104 -5.12064
          CHANNELS 3 Zrotation Xrotation Yrotation
          End Site
          {
            OFFSET 1.1221 -3.69964 12.103
          }
        }
      }
    }
  }
}
MOTION
Frames:	8
Frame Time:	0.00833333
2.92592 84.8855 195.307 0.0 0.0 0.0 -0.188094 -0.00125239 -0.00538538 -0.0519272 -0.00198485 -0.0089961 2.93808e-15 -7.95139e-16 3.10601e-17 8.82418e-15 3.18055e-15 7.14382e-17 -0.0 0.0 0.0 -0.0 0.0 0.0 1.48962e-15 2.32951e-18 1.49089e-16 3.29779e-14 8.07563e-17 1.19271e-15 5.36371e-13 -1.56046e-13 -9.54166e-15 6.11239e-12 1.74682e-13 7.63333e-14 1.44229e-11 3.69111e-14 1.55847e-13 2.48874e-11 6.04305e-14 2.50469e-13 1.44274e-11 3.73715e-14 1.39944e-13 7.73091 5.47488 0.417314 1.44234e-11 3.62782e-14 1.59028e-13 2.90554 0.965183 0.102902 1.44297e-11 3.65764e-14 1.48691e-13 10.2786 0.731801 0.0259123 1.44169e-11 3.89618e-14 1.55847e-13 2.22167 -0.733487 -0.20892 1.39285e-15 2.32951e-18 -1.49089e-16 2.90598e-14 -1.2424e-17 -3.97569e-16 5.32196e-13 1.61811e-13 -6.36111e-15 6.114e-12 -1.52716e-13 7.63333e-14 1.44214e-11 1.99674e-14 1.33583e-13 2.49192e-11 3.49861e-14 2.54444e-13 1.44171e-11 1.98785e-14 1.39944e-13 -7.73091 5.47488 -0.417314 1.44217e-11 1.96797e-14 1.33583e-13 -2.90554 0.965183 -0.102902 1.44125e-11 1.97791e-14 1.43125e-13 -10.2786 0.731801 -0.0259123 1.44284e-11 2.18663e-14 1.36764e-13 -2.22167 -0.733487 0.20892 -2.03217e-16 0.0 -3.88251e-19 0.336777 -2.83766 -0.0337252 -0.00646425 -0.412348 -0.0567832 -0.478918 3.24961 0.12028 2.03217e-16 0.0 3.88251e-19 -0.623492 -3.58113 0.0516562 0.00431596 0.934359 0.0368611 0.481689 2.64641 -0.10845
4.04294 80.0638 190.079 -175.632 0.4832 -152.745 1.70534 -7.86371 1.51326 0.11018 -0.113327 0.732026 -0.535125 0.616433 0.171314 0.424597 4.72969 -1.08399 -0.0 0.0 0.0 -0.0 0.0 0.0 9.11427e-15 -3.29813e-14 2.14043e-14 20.7139 8.8172 -3.50805 -2.20592 -0.784881 3.64545 0.000246851 -0.356228 -0.0500614 -4.98478e-11 -2.75723e-11 1.91304e-10 -8.53927e-11 -4.77853e-11 3.30278e-10 -4.98417e-11 -2.75726e-11 1.91288e-10 7.73091 5.47488 0.417314 -4.98472e-11 -2.75742e-11 1.91303e-10 2.90554 0.965183 0.102902 -4.98415e-11 -2.75744e-11 1.91297e-10 10.2786 0.731801 0.0259123 -4.98543e-11 -2.75721e-11 1.91303e-10 2.22167 -0.733487 -0.20892 9.0231e-15 -3.29807e-14 2.11197e-14 -20.5874 4.39373 5.60526 2.73058 -1.0435 -4.45514 -2.93489e-05 -0.142627 0.0200449 6.13442e-11 -2.42255e-10 -8.09026e-11 1.05804e-10 -4.19055e-10 -1.39488e-10 6.13404e-11 -2.42254e-10 -8.08974e-11 -7.73091 5.47488 -0.417314 6.13452e-11 -2.42255e-10 -8.09026e-11 -2.90554 0.965183 -0.102902 6.13347e-11 -2.42254e-10 -8.08941e-11 -10.2786 0.731801 -0.0259123 6.13493e-11 -2.42253e-10 -8.08992e-11 -2.22167 -0.733487 0.20892 -2.03217e-16 0.0 -3.88251e-19 5.75391 -15.0078 0.962736 -0.00938258 12.027 0.0965359 -2.29307 -9.23009 -8.4623 2.03217e-16 0.0 3.88251e-19 0.968044 -13.1154 8.14237 0.202442 17.0962 -0.0793719 -0.583155 13.005 11.102
4.06636 80.0397 190.038 -175.532 0.4142 -152.768 4.17469 -16.1598 3.21561 0.287338 -0.22642 1.51494 -1.10624 1.26644 0.35153 1.07122 9.71836 -2.25431 -0.0 0.0 0.0 -0.0 0.0 0.0 1.32095e-14 -6.16477e-14 4.46458e-14 43.8355 18.022 -7.49844 -4.42698 -1.60278 7.49718 -0.000173167 -0.724308 -0.101795 -4.80529e-11 -7.11907e-11 3.79982e-10 -8.14525e-11 -1.23349e-10 6.56018e-10 -4.8045e-11 -7.1192e-11 3.79967e-10 7.73091 5.47488 0.417314 -4.80521e-11 -7.11942e-11 3.79976e-10 2.90554 0.965183 0.102902 -4.80469e-11 -7.1195e-11 3.79975e-10 10.2786 0.731801 0.0259123 -4.806e-11 -7.11927e-11 3.79979e-10 2.22167 -0.733487 -0.20892 1.31241e-14 -6.16464e-14 4.43756e-14 -43.2907 8.89261 11.6358 5.44002 -2.12489 -9.16746 5.48046e-05 -0.284547 0.0399909 1.54784e-10 -4.86187e-10 -1.38067e-10 2.67095e-10 -8.40996e-10 -2.37984e-10 1.54781e-10 -4.86186e-10 -1.38064e-10 -7.73091 5.47488 -0.417314 1.54786e-10 -4.86186e-10 -1.38067e-10 -2.90554 0.965183 -0.102902 1.54774e-10 -4.86185e-10 -1.3806e-10 -10.2786 0.731801 -0.0259123 1.54787e-10 -4.86185e-10 -1.38064e-10 -2.22167 -0.733487 0.20892 -2.03217e-16 0.0 -3.88251e-19 11.9973 -27.859 2.20932 -0.0908797 25.1737 0.281103 -8.47766 -21.5497 -18.6607 2.03217e-16 0.0 3.88251e-19 5.75629 -22.4697 17.636 0.495513 34.1839 -0.236017 -6.30892 22.4847 24.3294
4.03921 80.0987 189.958 -175.572 0.4022 -152.799 6.83727 -23.5194 4.91724 0.443031 -0.335788 2.2141 -1.61644 1.84923 0.51418 1.82469 14.1684 -3.34268 -0.0 0.0 0.0 -0.0 0.0 0.0 2.43636e-14 -9.89487e-14 6.39147e-14 65.6695 26.0321 -11.5892 -6.31996 -2.31655 10.9444 -0.00112722 -1.06868 -0.150208 -1.78389e-10 -8.27906e-11 5.736e-10 -3.05953e-10 -1.43477e-10 9.90332e-10 -1.7838e-10 -8.27926e-11 5.73585e-10 7.73091 5.47488 0.417314 -1.78388e-10 -8.27952e-11 5.73591e-10 2.90554 0.965183 0.102902 -1.78384e-10 -8.27965e-11 5.73593e-10 10.2786 0.731801 0.0259123 -1.78397e-10 -8.27942e-11 5.73596e-10 2.22167 -0.733487 -0.20892 2.42836e-14 -9.89468e-14 6.36573e-14 -64.3539 12.6717 17.1976 7.70922 -3.05488 -13.3826 0.000211349 -0.427882 0.0601362 1.5519e-10 -7.26805e-10 -2.42975e-10 2.67574e-10 -1.25724e-09 -4.18974e-10 1.55187e-10 -7.26803e-10 -2.42972e-10 -7.73091 5.47488 -0.417314 1.55192e-10 -7.26803e-10 -2.42975e-10 -2.90554 0.965183 -0.102902 1.55179e-10 -7.26803e-10 -2.42969e-10 -10.2786 0.731801 -0.0259123 1.55191e-10 -7.26803e-10 -2.42971e-10 -2.22167 -0.733487 0.20892 -2.03217e-16 0.0 -3.88251e-19 18.1776 -39.2959 3.69285 -0.253684 36.9048 0.496246 -18.1935 -30.7939 -29.8298 2.03217e-16 0.0 3.88251e-19 12.97 -29.5379 27.4952 0.879271 49.4189 -0.463178 -15.4242 28.4335 37.8536
4.02019 80.083 189.903 -175.588 0.3389 -152.824 9.00269 -28.6031 6.27012 0.539541 -0.436039 2.70386 -1.9667 2.26406 0.632694 2.45299 17.2915 -4.14048 -0.0 0.0 0.0 -0.0 0.0 0.0 5.31647e-14 -1.57836e-13 7.32521e-14 81.7049 31.4503 -14.9257 -7.60079 -2.80595 13.3728 -0.00224831 -1.35379 -0.190299 -6.39054e-10 -1.43443e-11 7.79567e-10 -1.10156e-09 -2.50151e-11 1.34608e-09 -6.39044e-10 -1.43467e-11 7.79554e-10 7.73091 5.47488 0.417314 -6.39053e-10 -1.43493e-11 7.79557e-10 2.90554 0.965183 0.102902 -6.39049e-10 -1.43507e-11 7.79561e-10 10.2786 0.731801 0.0259123 -6.39061e-10 -1.43483e-11 7.79563e-10 2.22167 -0.733487 -0.20892 5.30892e-14 -1.57834e-13 7.30037e-14 -79.4907 15.1339 21.2251 9.21553 -3.67808 -16.3384 0.000405159 -0.574751 0.0807788 -7.6991e-11 -9.59139e-10 -4.67239e-10 -1.33977e-10 -1.65923e-09 -8.06201e-10 -7.69941e-11 -9.59137e-10 -4.67236e-10 -7.73091 5.47488 -0.417314 -7.69884e-11 -9.59138e-10 -4.67239e-10 -2.90554 0.965183 -0.102902 -7.70023e-11 -9.59137e-10 -4.67234e-10 -10.2786 0.731801 -0.0259123 -7.69911e-11 -9.59137e-10 -4.67236e-10 -2.22167 -0.733487 0.20892 -2.03217e-16 0.0 -3.88251e-19 22.9929 -47.2461 5.10422 -0.442919 45.098 0.70164 -27.4861 -35.66 -39.1092 2.03217e-16 0.0 3.88251e-19 19.6853 -33.383 35.2919 1.2926 60.0229 -0.748714 -23.682 30.6391 47.9989
4.0293 80.1672 189.838 -175.549 0.2259 -152.865 9.94392 -30.557 6.85808 0.558051 -0.534509 2.9023 -2.0895 2.43251 0.693645 2.71573 18.5853 -4.46018 -0.0 0.0 0.0 -0.0 0.0 0.0 1.22742e-13 -2.73557e-13 6.86692e-14 88.2267 33.5727 -16.4111 -8.11797 -3.00755 14.3745 -0.00316173 -1.57343 -0.221188 -1.85151e-09 2.15451e-10 1.11279e-09 -3.19671e-09 3.72806e-10 1.92191e-09 -1.85151e-09 2.15449e-10 1.11278e-09 7.73091 5.47488 0.417314 -1.85151e-09 2.15447e-10 1.11279e-09 2.90554 0.965183 0.102902 -1.85151e-09 2.15446e-10 1.11279e-09 10.2786 0.731801 0.0259123 -1.85152e-09 2.15449e-10 1.11279e-09 2.22167 -0.733487 -0.20892 1.22675e-13 -2.73554e-13 6.84242e-14 -85.525 16.0851 22.8785 9.80115 -3.92235 -17.5235 0.000639339 -0.729799 0.102572 -7.64678e-10 -1.27791e-09 -9.9108e-10 -1.32291e-09 -2.21093e-09 -1.71099e-09 -7.64682e-10 -1.27791e-09 -9.91074e-10 -7.73091 5.47488 -0.417314 -7.64676e-10 -1.27791e-09 -9.9108e-10 -2.90554 0.965183 -0.102902 -7.64689e-10 -1.27791e-09 -9.91075e-10 -10.2786 0.731801 -0.0259123 -7.64678e-10 -1.27791e-09 -9.91079e-10 -2.22167 -0.733487 0.20892 -2.03217e-16 0.0 -3.88251e-19 25.0223 -50.3845 5.7569 -0.542897 48.3492 0.800259 -31.6241 -37.1302 -43.0131 2.03217e-16 0.0 3.88251e-19 22.6539 -34.6041 38.527 1.51932 64.1426 -0.916576 -27.3698 31.2301 51.9502
4.00008 80.1622 189.848 -175.688 0.2313 -152.828 9.86882 -30.2917 6.81002 0.519603 -0.631246 2.89257 -2.04898 2.42552 0.71322 2.67094 18.5761 -4.41943 -0.0 0.0 0.0 -0.0 0.0 0.0 2.20681e-13 -4.28607e-13 5.4144e-14 87.5648 33.4447 -16.3163 -8.11097 -3.01099 14.3556 -0.00383737 -1.74546 -0.245386 -3.5872e-09 5.58149e-10 1.53168e-09 -6.19631e-09 9.66107e-10 2.64588e-09 -3.58719e-09 5.58148e-10 1.53167e-09 7.73091 5.47488 0.417314 -3.5872e-09 5.58147e-10 1.53168e-09 2.90554 0.965183 0.102902 -3.5872e-09 5.58147e-10 1.53168e-09 10.2786 0.731801 0.0259123 -3.5872e-09 5.5815e-10 1.53168e-09 2.22167 -0.733487 -0.20892 2.20623e-13 -4.28603e-13 5.38986e-14 -84.8679 16.0597 22.7723 9.76254 -3.91043 -17.4407 0.000948297 -0.890535 0.125166 -1.77154e-09 -1.65375e-09 -1.7226e-09 -3.06357e-09 -2.86149e-09 -2.97457e-09 -1.77155e-09 -1.65375e-09 -1.72259e-09 -7.73091 5.47488 -0.417314 -1.77154e-09 -1.65375e-09 -1.7226e-09 -2.90554 0.965183 -0.102902 -1.77155e-09 -1.65375e-09 -1.72259e-09 -10.2786 0.731801 -0.0259123 -1.77154e-09 -1.65375e-09 -1.7226e-09 -2.22167 -0.733487 0.20892 -2.03217e-16 0.0 -3.88251e-19 24.7467 -50.1026 5.59372 -0.533775 48.0703 0.784465 -31.082 -37.0287 -42.4717 2.03217e-16 0.0 3.88251e-19 22.2824 -34.5106 38.1317 1.48795 63.6315 -0.88203 -27.2675 31.652 51.3823
3.98985 80.1881 189.811 -175.669 0.2116 -152.822 9.39844 -29.1308 6.50747 0.446124 -0.709958 2.79656 -1.94321 2.3664 0.709232 2.50966 18.0228 -4.24788 -0.0 0.0 0.0 -0.0 0.0 0.0 3.0425e-13 -5.56807e-13 3.56679e-14 84.0224 32.3916 -15.5853 -7.89095 -2.93331 13.9207 -0.00431316 -1.87047 -0.262972 -5.06922e-09 8.67153e-10 1.80888e-09 -8.75767e-09 1.50106e-09 3.12501e-09 -5.06922e-09 8.67152e-10 1.80888e-09 7.73091 5.47488 0.417314 -5.06923e-09 8.67153e-10 1.80889e-09 2.90554 0.965183 0.102902 -5.06923e-09 8.67154e-10 1.80889e-09 10.2786 0.731801 0.0259123 -5.06923e-09 8.67157e-10 1.80889e-09 2.22167 -0.733487 -0.20892 3.04197e-13 -5.56804e-13 3.54206e-14 -81.526 15.6611 21.9506 9.47233 -3.79487 -16.8461 0.00132874 -1.04838 0.147357 -2.69826e-09 -1.89557e-09 -2.32522e-09 -4.66565e-09 -3.28014e-09 -4.01554e-09 -2.69827e-09 -1.89557e-09 -2.3252e-09 -7.73091 5.47488 -0.417314 -2.69826e-09 -1.89557e-09 -2.32522e-09 -2.90554 0.965183 -0.102902 -2.69827e-09 -1.89557e-09 -2.32521e-09 -10.2786 0.731801 -0.0259123 -2.69826e-09 -1.89557e-09 -2.32522e-09 -2.22167 -0.733487 0.20892 -2.03217e-16 0.0 -3.88251e-19 23.5321 -48.416 5.06621 -0.480803 46.3631 0.723801 -28.6703 -36.2979 -40.1441 2.03217e-16 0.0 3.88251e-19 20.5665 -33.8624 36.2547 1.35724 61.271 -0.772173 -25.5492 31.9278 48.9862
